<?xml version="1.0" encoding="UTF-8"?>
<svg id="Layer_2" xmlns="http://www.w3.org/2000/svg" version="1.1" viewBox="0 0 500 500">
  <!-- Generator: Adobe Illustrator 29.0.1, SVG Export Plug-In . SVG Version: 2.1.0 Build 192)  -->
  <path d="M470.3,27.55h0s0,0,0,0c-120.12,0-217.5,97.38-217.5,217.5,0-120.12-97.38-217.5-217.5-217.5h0c0,120.12,97.38,217.5,217.5,217.5-120.12,0-217.5,97.38-217.5,217.5h0s0,0,0,0c120.12,0,217.5-97.38,217.5-217.5,0,120.12,97.38,217.5,217.5,217.5h0c0-120.12-97.38-217.5-217.5-217.5,120.12,0,217.5-97.38,217.5-217.5Z"/>
</svg>