<?xml version="1.0" encoding="UTF-8"?>
<svg id="Layer_2" xmlns="http://www.w3.org/2000/svg" version="1.1" viewBox="0 0 500 500">
  <!-- Generator: Adobe Illustrator 29.0.1, SVG Export Plug-In . SVG Version: 2.1.0 Build 192)  -->
  <defs>
    <style>
      .st0 {
        fill: #fff;
      }
    </style>
  </defs>
  <g>
    <path class="st0" d="M288.14,422.66c-16.42,0-23.82-16.12-26.98-23-2.74-5.97-5.57-13.33-8.36-20.74-2.79,7.43-5.62,14.78-8.36,20.74-3.16,6.88-10.56,23-26.98,23-1.69,0-3.38-.19-5.03-.56-4.47-1.02-15.22-5.03-18.31-20.24-.74-3.66-1.06-7.95-1-13.51.07-6.59.68-14.44,1.38-22.38-18.91,17.99-28.53,26-40.55,26-5.33,0-10.31-1.73-14.4-4.99-3.58-2.86-11.5-11.13-7.66-26.14.92-3.58,2.48-7.55,4.93-12.48,2.92-5.89,6.89-12.72,10.98-19.58-16.3,5.27-27.28,8.4-35.76,8.4-14.83,0-20.92-9.31-22.85-13.31-1.99-4.13-5.55-15.02,4.43-26.86,2.36-2.8,5.47-5.67,9.78-9.02,5.2-4.05,11.79-8.5,18.49-12.93-7.87-1.08-15.6-2.23-21.99-3.63-5.47-1.19-9.61-2.47-13.03-4.02-14.13-6.42-15.66-17.78-15.66-22.37s1.53-15.94,15.66-22.37c3.42-1.56,7.56-2.83,13.03-4.02,6.4-1.39,14.14-2.55,21.99-3.63-6.7-4.43-13.29-8.88-18.49-12.93-4.31-3.35-7.41-6.22-9.78-9.02-9.98-11.84-6.43-22.73-4.43-26.86,1.93-4,8.02-13.31,22.85-13.31,8.48,0,19.45,3.13,35.76,8.4-4.08-6.86-8.06-13.68-10.98-19.58-2.45-4.93-4.01-8.9-4.93-12.48-3.84-15.01,4.08-23.28,7.66-26.14,4.09-3.27,9.07-4.99,14.4-4.99,12.02,0,21.64,8.01,40.55,26-.7-7.94-1.31-15.79-1.38-22.38-.06-5.55.26-9.85,1-13.51,3.09-15.21,13.84-19.22,18.31-20.24,1.65-.37,3.33-.56,5.02-.56,16.42,0,23.82,16.12,26.98,23,2.74,5.97,5.57,13.33,8.36,20.74,2.79-7.43,5.62-14.78,8.36-20.74,3.16-6.88,10.56-23,26.98-23,1.69,0,3.38.19,5.03.56,4.47,1.02,15.22,5.03,18.31,20.24.74,3.66,1.06,7.95,1,13.51-.07,6.59-.68,14.44-1.38,22.38,18.91-17.99,28.53-26,40.55-26,5.33,0,10.31,1.73,14.4,4.99,3.58,2.86,11.5,11.13,7.66,26.14-.92,3.58-2.48,7.55-4.93,12.48-2.92,5.89-6.89,12.72-10.98,19.58,16.3-5.27,27.28-8.4,35.76-8.4,14.83,0,20.92,9.31,22.85,13.31,1.99,4.13,5.55,15.02-4.43,26.86-2.36,2.8-5.47,5.67-9.78,9.02-5.2,4.05-11.79,8.5-18.49,12.93,7.87,1.08,15.6,2.23,21.99,3.63,5.47,1.19,9.61,2.47,13.03,4.02,14.13,6.42,15.66,17.78,15.66,22.37s-1.53,15.94-15.66,22.37c-3.42,1.56-7.56,2.83-13.03,4.02-6.4,1.39-14.14,2.55-21.99,3.63,6.7,4.43,13.29,8.88,18.49,12.93,4.31,3.35,7.41,6.22,9.78,9.02,9.98,11.84,6.43,22.73,4.43,26.86-1.93,4-8.02,13.31-22.85,13.31-8.48,0-19.45-3.13-35.76-8.4,4.08,6.86,8.06,13.68,10.98,19.58,2.45,4.93,4.01,8.9,4.93,12.48,3.84,15.01-4.08,23.28-7.66,26.14-4.09,3.27-9.07,4.99-14.4,4.99-12.02,0-21.64-8.01-40.55-26,.7,7.94,1.31,15.79,1.38,22.38.06,5.55-.26,9.85-1,13.51-3.09,15.21-13.84,19.22-18.31,20.24-1.65.37-3.33.56-5.02.56Z"/>
    <path d="M288.14,70.43c1.47,0,2.94.16,4.36.49,3.91.89,13.29,4.41,16.04,17.91.7,3.44,1,7.54.94,12.88-.09,8.11-1.02,18.3-1.91,28.15-.06.63-.12,1.28-.18,1.95.61-.58,1.19-1.14,1.75-1.67,21.03-20.12,30.82-29.02,42.51-29.02,4.64,0,8.97,1.5,12.53,4.34,3.13,2.5,10.03,9.74,6.63,23.05-.86,3.37-2.36,7.15-4.71,11.89-3.57,7.2-8.79,15.91-13.83,24.33-.37.61-.75,1.25-1.15,1.92.69-.22,1.35-.44,1.99-.65,19.18-6.27,31.48-10.08,40.45-10.08,13.13,0,18.46,8.12,20.15,11.61,1.74,3.6,4.83,13.12-4.02,23.62-2.22,2.64-5.19,5.37-9.33,8.59-6.28,4.89-14.7,10.43-22.84,15.79-.68.45-1.4.92-2.15,1.41.57.08,1.12.15,1.65.22,9.85,1.33,20.04,2.7,28.03,4.43,5.25,1.14,9.2,2.36,12.42,3.82,12.54,5.7,13.9,15.63,13.9,19.64s-1.35,13.93-13.9,19.64c-3.22,1.46-7.17,2.68-12.42,3.82-7.99,1.74-18.18,3.11-28.03,4.43-.53.07-1.08.15-1.65.22.75.49,1.47.97,2.15,1.41,8.14,5.36,16.55,10.9,22.84,15.79,4.14,3.22,7.1,5.95,9.33,8.59,8.85,10.5,5.76,20.02,4.02,23.62-1.68,3.49-7.02,11.61-20.15,11.61-8.97,0-21.27-3.81-40.45-10.08-.64-.21-1.3-.43-1.99-.65.4.66.78,1.31,1.15,1.92,5.04,8.42,10.26,17.13,13.83,24.33,2.35,4.74,3.85,8.52,4.71,11.89,3.4,13.31-3.5,20.56-6.63,23.05-3.55,2.84-7.89,4.34-12.53,4.34-11.69,0-21.48-8.89-42.5-29.01-.56-.53-1.14-1.1-1.76-1.68.06.68.12,1.33.18,1.95.9,9.85,1.83,20.03,1.91,28.15.06,5.34-.24,9.43-.94,12.88-2.75,13.5-12.13,17.02-16.04,17.91-1.43.32-2.89.49-4.36.49-14.5,0-21.09-14.35-24.25-21.25-3.24-7.06-6.65-16.18-9.94-24.99-.36-.96-.74-1.99-1.14-3.06-.4,1.07-.79,2.1-1.14,3.06-3.29,8.82-6.7,17.93-9.94,25-3.17,6.9-9.76,21.25-24.25,21.25-1.47,0-2.94-.16-4.36-.49-3.91-.89-13.29-4.41-16.04-17.91-.7-3.44-1-7.54-.94-12.88.09-8.11,1.02-18.3,1.91-28.15.06-.63.12-1.28.18-1.95-.61.58-1.19,1.14-1.75,1.67-21.03,20.12-30.82,29.02-42.51,29.02-4.64,0-8.97-1.5-12.53-4.34-3.13-2.5-10.03-9.74-6.63-23.05.86-3.37,2.36-7.15,4.71-11.89,3.57-7.2,8.79-15.91,13.83-24.33.37-.61.75-1.25,1.15-1.92-.69.22-1.35.44-1.99.65-19.18,6.27-31.48,10.08-40.45,10.08-13.13,0-18.46-8.12-20.15-11.61-1.74-3.6-4.83-13.12,4.02-23.62,2.22-2.64,5.19-5.37,9.33-8.59,6.28-4.89,14.7-10.43,22.84-15.79.68-.45,1.4-.92,2.15-1.41-.57-.08-1.12-.15-1.65-.22-9.85-1.33-20.04-2.7-28.03-4.43-5.25-1.14-9.2-2.36-12.42-3.82-12.54-5.7-13.9-15.63-13.9-19.64s1.35-13.93,13.9-19.64c3.22-1.46,7.17-2.68,12.42-3.82,7.99-1.74,18.18-3.11,28.03-4.43.53-.07,1.08-.15,1.65-.22-.75-.49-1.47-.97-2.15-1.41-8.14-5.36-16.55-10.9-22.84-15.79-4.14-3.22-7.1-5.95-9.33-8.59-8.85-10.5-5.76-20.02-4.02-23.62,1.68-3.49,7.02-11.61,20.15-11.61,8.97,0,21.26,3.81,40.45,10.08.64.21,1.3.43,2,.65-.4-.67-.78-1.31-1.15-1.92-5.04-8.42-10.26-17.13-13.83-24.33-2.35-4.74-3.85-8.52-4.71-11.89-3.4-13.31,3.5-20.56,6.63-23.05,3.55-2.84,7.89-4.34,12.53-4.34,11.69,0,21.47,8.89,42.5,29.01.56.54,1.15,1.1,1.76,1.68-.06-.68-.12-1.33-.18-1.96-.9-9.85-1.83-20.03-1.91-28.15-.06-5.34.24-9.43.94-12.88,2.75-13.5,12.13-17.02,16.04-17.91,1.43-.32,2.89-.49,4.36-.49,14.5,0,21.09,14.35,24.25,21.25,3.24,7.06,6.65,16.18,9.94,24.99.36.96.74,1.99,1.14,3.06.4-1.07.79-2.1,1.14-3.06,3.29-8.82,6.7-17.93,9.94-25,3.17-6.9,9.76-21.25,24.25-21.25M288.11,88.43h0,0s.02,0,.03,0c.12,0,.25.01.37.04,3.71.84,3.34,13.32,2.15,28.11-.09,1.14-.19,2.29-.29,3.45.1-1.16.2-2.31.29-3.45,1.19-14.79,1.56-27.27-2.15-28.11-.12-.03-.24-.04-.37-.04,0,0-.02,0-.03,0M217.1,88.47c-1.23.28-2.01,1.83-2.46,4.32,0,0,0,0,0,0,0,0,0,0,0,.01-2.06,11.4,2.74,42.38,3.14,60.59-.4-18.21-5.2-49.19-3.14-60.59,0,0,0,0,0-.01,0,0,0,0,0,0,.45-2.49,1.23-4.04,2.46-4.32.12-.03.24-.04.37-.04.01,0,.02,0,.03,0h0,0s-.02,0-.03,0c-.12,0-.25.01-.37.04M287.68,88.49c.08-.02.15-.02.23-.03-.08,0-.15.02-.23.03M217.92,88.49c-.08-.02-.15-.02-.23-.03.08,0,.15.02.23.03M287.24,88.65c.08-.04.16-.06.23-.09-.08.03-.15.05-.23.09M218.36,88.65c-.08-.04-.16-.06-.23-.09.08.03.15.05.23.09M286.79,88.9c.08-.05.16-.09.24-.14-.08.04-.16.08-.24.14M218.81,88.9c-.08-.05-.16-.09-.24-.14.08.04.16.08.24.14M286.33,89.25c.08-.07.16-.13.24-.19-.08.06-.16.12-.24.19M219.28,89.25c-.08-.07-.16-.12-.24-.18.08.06.16.12.24.18M286.1,89.46c-.08.08-.16.15-.25.23.08-.08.17-.16.25-.23M219.75,89.69c-.08-.08-.16-.16-.24-.23.08.08.16.15.24.23M285.37,90.22c.09-.1.17-.19.25-.28-.08.09-.17.18-.25.28M220.23,90.22c-.08-.1-.17-.19-.25-.28.08.09.16.18.25.28M284.87,90.84c.09-.11.17-.22.26-.33-.09.11-.17.21-.26.33M220.73,90.84c-.08-.11-.17-.21-.25-.31.08.1.17.2.25.31M284.37,91.53c.09-.13.18-.25.27-.37-.09.12-.18.24-.27.37M221.23,91.53c-.09-.12-.17-.24-.25-.35.08.12.17.23.25.35M284.13,91.89c-.09.14-.18.27-.27.42.09-.14.18-.28.27-.42M221.74,92.3c-.09-.14-.17-.27-.26-.4.09.13.17.26.26.4M283.33,93.16c.09-.16.19-.31.28-.46-.09.15-.19.3-.28.46M222.26,93.15c-.09-.15-.18-.29-.26-.43.09.14.18.28.26.43M282.8,94.08c.1-.17.19-.34.29-.5-.1.17-.19.33-.29.5M222.79,94.06c-.09-.16-.18-.31-.26-.46.09.15.17.3.26.46M282.27,95.07c.1-.19.2-.37.29-.55-.1.18-.2.36-.29.55M223.33,95.05c-.09-.17-.18-.33-.27-.49.09.16.18.32.27.49M281.72,96.12c.1-.2.2-.39.3-.59-.1.19-.2.39-.3.59M223.87,96.1c-.09-.18-.18-.35-.27-.52.09.17.18.35.27.52M281.17,97.24c.1-.21.21-.42.31-.63-.1.21-.21.42-.31.63M224.42,97.21c-.09-.19-.18-.37-.27-.55.09.18.18.36.27.55M280.6,98.41c.11-.23.21-.45.32-.68-.11.22-.21.45-.32.68M224.98,98.37c-.09-.19-.18-.38-.27-.57.09.19.18.37.27.57M280.37,98.92c-.11.24-.22.48-.33.72.11-.24.22-.48.33-.72M225.55,99.6c-.09-.2-.18-.4-.27-.6.09.2.18.4.27.6M279.46,100.92c.11-.26.22-.51.34-.76-.11.25-.22.5-.34.76M226.12,100.88c-.09-.21-.19-.42-.28-.63.09.21.19.42.28.63M278.88,102.25c.11-.27.23-.53.34-.79-.11.26-.23.52-.34.79M226.69,102.2c-.09-.22-.19-.43-.28-.64.09.21.19.43.28.64M278.3,103.63c.12-.28.23-.55.35-.82-.12.27-.23.55-.35.82M227.28,103.57c-.09-.22-.19-.44-.28-.66.09.22.19.44.28.66M277.7,105.07c.12-.3.24-.59.37-.88-.12.29-.24.58-.37.88M227.86,104.97c-.09-.23-.19-.45-.28-.68.09.22.19.45.28.68M277.11,106.53c.13-.32.25-.63.38-.94-.13.31-.25.62-.38.94M228.45,106.42c-.09-.23-.18-.45-.27-.68.09.22.18.45.27.68M276.7,107.54c-.07.17-.13.33-.2.5.07-.17.13-.33.2-.5.07-.17.13-.33.2-.5-.07.17-.13.33-.2.5M229.05,107.9c-.09-.23-.18-.46-.27-.69.09.23.18.46.27.69M276.31,108.51c-.14.35-.28.71-.42,1.07.14-.36.28-.72.42-1.07M229.65,109.41c-.09-.23-.18-.46-.27-.68.09.23.18.45.27.68M275.27,111.16c.15-.38.29-.76.44-1.13-.15.38-.29.75-.44,1.13M230.25,110.95c-.09-.23-.18-.47-.27-.7.09.23.18.47.27.7M274.65,112.77c.16-.41.32-.82.47-1.23-.16.41-.32.82-.47,1.23M230.85,112.51c-.09-.23-.18-.46-.26-.69.09.23.18.46.26.69M274.01,114.44c.17-.45.34-.9.51-1.35-.17.45-.34.9-.51,1.35M231.46,114.1c-.09-.23-.18-.46-.26-.69.09.23.18.46.26.69M273.38,116.1c.19-.49.37-.98.56-1.47-.19.49-.37.98-.56,1.47M232.07,115.7c-.08-.22-.17-.45-.25-.67.08.22.17.44.25.67M268.17,130.01c1.72-4.55,3.46-9.26,5.17-13.8-1.71,4.54-3.45,9.24-5.17,13.8M232.66,117.26c-.07-.19-.14-.38-.21-.57.07.19.14.38.21.57M233.24,118.81c-.05-.13-.1-.26-.15-.39.05.13.1.26.15.39M153.95,119.11h0c.16,0,.32.01.49.03-.17-.02-.34-.04-.49-.04,0,0,0,0,0,0M351.22,119.14s-.05,0-.08,0c.03,0,.05,0,.08,0,.15-.02.28-.03.42-.03h0s0,0,0,0c-.13,0-.27,0-.42.03M350.59,119.26c.15-.04.3-.07.44-.09-.14.02-.29.05-.44.09M155.01,119.26c-.14-.04-.28-.06-.42-.08.14.02.27.05.42.08M352.42,119.24s-.09-.03-.14-.04c.05.01.09.03.14.04M153.32,119.2s-.09.03-.14.04c.04-.02.09-.03.14-.04M349.98,119.45c.13-.05.26-.08.39-.12-.13.04-.26.07-.39.12M155.62,119.44c-.13-.04-.25-.08-.37-.11.12.04.24.07.37.11M153.44,127.56c1.39,3.44,3.6,7.72,6.24,12.41.52.93,1.06,1.88,1.62,2.84,1.11,1.92,2.27,3.9,3.45,5.9,1.19,2,2.4,4.04,3.62,6.07-1.22-2.04-2.44-4.07-3.62-6.07-1.19-2-2.35-3.98-3.45-5.9-.55-.96-1.09-1.91-1.62-2.84-2.64-4.7-4.86-8.97-6.24-12.41-1.64-4.06-2.12-6.97-.78-8.04-1.34,1.07-.86,3.98.78,8.04M349.33,119.7c.13-.06.26-.11.39-.16-.13.05-.26.1-.39.16M156.26,119.7c-.12-.05-.24-.1-.36-.15.12.05.24.09.36.15M348.63,120.02c.14-.07.28-.13.41-.2-.14.06-.27.13-.41.2M156.95,120.02c-.13-.06-.25-.12-.37-.18.12.06.25.11.37.18M347.89,120.42c.15-.08.3-.16.44-.24-.15.08-.29.15-.44.24M157.68,120.4c-.13-.07-.26-.14-.39-.21.13.07.26.14.39.21M347.11,120.87c.16-.1.32-.19.48-.28-.16.09-.31.18-.48.28M158.45,120.85c-.14-.08-.27-.16-.4-.24.13.08.27.16.4.24M346.28,121.39c.17-.11.35-.22.52-.33-.17.11-.34.22-.52.33M159.25,121.35c-.14-.09-.28-.18-.41-.26.14.08.27.17.41.26M345.4,121.99c.19-.13.39-.27.58-.39-.19.13-.38.26-.58.39M160.09,121.91c-.14-.1-.28-.19-.42-.28.14.09.28.19.42.28M344.45,122.66c.22-.16.45-.32.67-.48-.22.15-.44.31-.67.48M160.95,122.51c-.14-.1-.28-.2-.42-.3.14.1.28.2.42.3M343.33,123.49c.3-.23.6-.45.9-.67-.29.22-.59.44-.9.67M161.82,123.15c-.13-.1-.26-.2-.39-.29.13.1.26.2.39.29M341.82,124.67c-.51.41-1.03.83-1.56,1.27.53-.44,1.05-.87,1.56-1.27.51-.41,1.01-.8,1.49-1.17-.49.37-.98.76-1.49,1.17M162.53,123.69c-.06-.04-.12-.09-.18-.14.06.04.12.09.18.14M164.22,125.03s-.08-.06-.12-.1c.04.03.08.06.12.1M165.23,125.85c-.1-.08-.19-.16-.29-.24.1.08.19.16.29.24M235.99,126.18c-.02-.07-.05-.13-.07-.2.02.07.05.13.07.2M339.2,126.84c.32-.27.64-.54.95-.8-.31.26-.63.53-.95.8M351.47,129.19c.45-1.02.85-1.99,1.17-2.88-.33.9-.72,1.86-1.17,2.88M166.25,126.71c-.1-.09-.21-.17-.31-.26.1.09.21.17.31.26M338.11,127.78c.31-.27.62-.54.93-.8-.31.26-.62.53-.93.8M167.28,127.59c-.1-.09-.2-.17-.3-.26.1.09.2.17.3.26M236.64,127.9c-.05-.12-.09-.24-.14-.37.05.12.09.24.14.37M337.93,127.93c-.32.27-.64.55-.96.84.32-.28.64-.56.96-.84M168.34,128.51c-.09-.08-.19-.16-.28-.25.09.08.19.16.28.25M336.83,128.9c-.33.3-.67.6-1.01.9.34-.3.68-.6,1.01-.9M237.29,129.63c-.07-.19-.14-.38-.22-.58.07.19.14.38.22.58M169.39,129.44c-.08-.07-.16-.14-.24-.22.08.07.16.14.24.22M335.7,129.9c-.36.33-.73.66-1.1.99.37-.34.74-.67,1.1-.99M267.58,131.56c.18-.48.37-.97.55-1.45-.18.49-.37.97-.55,1.45M170.44,130.38c-.05-.05-.11-.1-.16-.15.05.05.11.1.16.15M237.92,131.28c-.08-.22-.16-.43-.25-.65.08.22.16.43.25.65M311.1,153.06c7.62-7.05,16.09-15.45,23.47-22.14-7.38,6.68-15.85,15.09-23.47,22.14M171.45,131.3s-.02-.02-.04-.03c.01.01.02.02.04.03M349.79,132.74c.2-.4.39-.8.58-1.18-.19.39-.38.78-.58,1.18M267.49,131.81c-.17.44-.34.89-.51,1.33.17-.44.34-.88.51-1.33M238.53,132.89c-.08-.21-.16-.42-.24-.62.08.21.16.42.24.62M266.38,134.68c.16-.41.31-.81.47-1.22-.16.41-.31.82-.47,1.22M239.15,134.5c-.08-.21-.16-.42-.24-.63.08.21.16.42.24.63M288.8,137.62c.1-1.15.2-2.31.3-3.48-.1,1.17-.2,2.33-.3,3.48M347.02,137.98c.65-1.18,1.27-2.33,1.84-3.44-.58,1.11-1.2,2.26-1.84,3.44M266.22,135.1c-.15.38-.29.76-.44,1.13.15-.38.29-.75.44-1.13M239.77,136.08c-.09-.22-.17-.44-.26-.66.09.22.17.44.26.66M265.61,136.67c-.14.36-.29.73-.43,1.09.14-.36.29-.72.43-1.09M240.37,137.62c-.09-.22-.17-.43-.26-.65.09.22.17.43.26.65M264.58,139.24c.13-.33.26-.66.39-.99-.13.33-.26.66-.39.99M240.91,138.96c.02.06.05.12.07.18-.02-.06-.05-.12-.07-.18-.06-.15-.12-.3-.18-.46.06.15.12.31.18.46M345.47,140.77c.3-.53.59-1.05.88-1.57-.29.52-.58,1.04-.88,1.57M263.98,140.72c.13-.31.26-.63.38-.94-.13.32-.26.63-.38.94M241.58,140.63c-.08-.21-.17-.41-.25-.62.08.21.17.42.25.62M263.39,142.16c.12-.3.25-.6.37-.9-.12.3-.25.6-.37.9M242.18,142.08c-.08-.2-.17-.4-.25-.6.08.2.17.4.25.6M344.77,141.99c-1.16,2.02-2.38,4.11-3.64,6.24-.02.03-.04.07-.06.1.02-.03.04-.07.06-.1,1.26-2.12,2.48-4.21,3.64-6.24M262.79,143.57c.12-.29.25-.58.37-.88-.12.29-.25.59-.37.88M242.78,143.5c-.09-.2-.17-.41-.26-.61.09.2.17.41.26.61M262.21,144.93c.12-.28.24-.56.37-.85-.12.28-.24.57-.37.85M243.37,144.87c-.09-.2-.17-.4-.26-.6.09.2.17.41.26.6M261.63,146.24c.12-.26.23-.53.35-.79-.12.27-.24.53-.35.79M243.96,146.19c-.09-.19-.17-.39-.26-.59.09.2.17.39.26.59M261.05,147.5c.11-.24.22-.49.34-.74-.11.25-.22.49-.34.74M244.53,147.46c-.08-.18-.17-.37-.26-.56.09.19.17.38.26.56M287.93,150.5c.04-.94.09-1.91.14-2.9-.06.99-.1,1.96-.14,2.9M260.48,148.72c.11-.22.21-.45.32-.68-.11.23-.22.46-.32.68M245.11,148.69c-.08-.18-.17-.36-.25-.54.08.18.17.36.25.54M259.91,149.88c.1-.21.21-.42.31-.64-.1.21-.21.43-.31.64M245.68,149.86c-.08-.17-.17-.34-.25-.52.08.17.17.35.25.52M259.35,150.99c.1-.2.2-.4.31-.6-.1.2-.2.41-.31.6M246.24,150.97c-.08-.16-.17-.33-.25-.49.08.16.17.33.25.49M335.76,157.23c1.28-2.13,2.56-4.27,3.82-6.39-1.26,2.12-2.55,4.26-3.82,6.39M258.8,152.03c.1-.18.2-.38.3-.57-.1.19-.2.38-.3.57M246.8,152.02c-.08-.15-.17-.31-.25-.47.08.16.17.32.25.47M258.55,152.48c-.1.18-.2.36-.3.53.1-.17.2-.35.3-.53M247.35,153c-.08-.15-.17-.3-.25-.45.08.15.17.3.25.45M310.08,153.99c.31-.29.62-.57.94-.86-.31.29-.62.58-.94.86M287.81,155.64c0,.59,0,1.16.02,1.72-.01-.55-.02-1.13-.02-1.72,0-.71,0-1.45.03-2.21-.02.76-.02,1.49-.03,2.21M257.71,153.92c.09-.15.19-.32.28-.48-.09.16-.19.32-.28.48M217.8,155.66c0,6.22-.65,10.56-2.5,11.45-.11.05-.22.09-.35.12-.03,0-.06.02-.1.02.03,0,.06-.01.1-.02.12-.03.24-.07.35-.12,1.85-.89,2.5-5.23,2.5-11.45,0-.71,0-1.45-.02-2.2.02.76.02,1.49.02,2.2M247.89,153.91c-.08-.13-.16-.27-.24-.41.08.14.16.28.24.41M308.99,154.99c.28-.25.55-.5.83-.76-.28.26-.56.51-.83.76M257.18,154.76c.09-.14.18-.28.27-.42-.09.14-.18.29-.27.42M248.42,154.76c-.08-.12-.16-.25-.24-.37.08.12.16.25.24.37M256.66,155.53c.09-.12.18-.26.26-.38-.09.13-.18.26-.26.38M248.94,155.52c-.08-.11-.16-.23-.24-.34.08.11.16.23.24.34M307.89,155.99c.26-.23.52-.47.79-.71-.26.24-.53.48-.79.71M256.14,156.22c.08-.11.17-.23.26-.34-.09.11-.17.23-.26.34M249.46,156.21c-.08-.1-.15-.2-.23-.31.08.1.15.21.23.31M306.8,156.96c.25-.22.49-.44.74-.66-.25.22-.5.44-.74.66M255.63,156.83c.08-.09.17-.2.25-.29-.08.1-.17.2-.25.29M249.97,156.82c-.07-.08-.15-.18-.22-.27.07.09.15.18.22.27M198.51,156.7s0,0,0,0c0,0,0,0,0,0M255.14,157.35c.08-.08.16-.16.23-.25-.08.08-.16.17-.23.25M250.46,157.35c-.07-.07-.14-.15-.22-.23.07.08.15.16.22.23M306.41,157.3c-.24.21-.47.42-.7.62.23-.2.47-.41.7-.62M254.65,157.78c.07-.06.15-.13.22-.2-.07.07-.15.14-.22.2M250.95,157.78c-.07-.06-.14-.12-.21-.18.07.06.14.13.21.18M199.67,157.73s0,0,0,0c0,0,0,0,0,0M172.92,162.39c-.89-1.5-1.8-3.02-2.71-4.54.91,1.52,1.82,3.04,2.71,4.54M254.17,158.13c.07-.04.14-.1.21-.15-.07.05-.14.1-.21.15M251.43,158.13c-.06-.04-.13-.09-.19-.14.06.05.13.1.19.14M304.64,158.85c.22-.19.45-.39.67-.58-.23.2-.45.39-.67.58M253.7,158.38c.06-.03.12-.06.18-.09-.06.03-.12.07-.18.09M251.9,158.38c-.06-.02-.11-.06-.17-.09.06.03.12.07.17.09M253.25,158.53s.1-.03.14-.05c-.05.01-.1.04-.14.05M252.36,158.53s-.09-.03-.14-.05c.05.01.09.04.14.05M303.59,159.75c.21-.18.43-.36.64-.55-.21.18-.43.37-.64.55M302.56,160.61c.2-.17.41-.34.61-.51-.2.17-.41.34-.61.51M288.37,163.39c-.16-.78-.28-1.66-.37-2.64.09.98.21,1.86.37,2.64M301.12,161.77c.32-.26.65-.52.97-.79-.33.27-.65.53-.97.79M300.61,162.18c-.15.12-.31.24-.46.35.15-.12.3-.23.46-.35M205.12,162.28s-.04-.03-.05-.04c.02.01.04.03.05.04M299.21,163.25c.14-.11.29-.21.44-.33-.15.11-.29.22-.44.33M206.22,163.13c-.07-.05-.14-.1-.21-.16.07.05.14.1.21.16M329.59,167.67c.8-1.39,1.63-2.81,2.48-4.25-.85,1.44-1.68,2.86-2.48,4.25M298.29,163.92c.14-.1.28-.2.42-.3-.14.1-.28.2-.42.3M207.21,163.86c-.09-.07-.18-.13-.28-.2.09.07.19.13.28.2M297.41,164.54c.13-.09.27-.18.41-.28-.14.1-.27.19-.41.28M208.13,164.5c-.1-.07-.2-.14-.3-.21.1.07.2.14.3.21M296.57,165.1c.13-.08.26-.17.39-.25-.13.09-.26.17-.39.25M209,165.08c-.1-.07-.21-.13-.31-.2.1.07.21.14.31.2M289.6,166.54c-.28-.33-.51-.78-.72-1.31.21.53.44.98.72,1.31M178.74,172.5c-.76-1.37-1.55-2.78-2.38-4.22-.55-.96-1.12-1.93-1.69-2.92.58.98,1.14,1.96,1.69,2.92.83,1.44,1.62,2.85,2.38,4.22M295.76,165.6c.12-.07.24-.15.36-.22-.12.08-.24.15-.36.22M209.82,165.59c-.1-.06-.21-.12-.31-.19.1.06.21.13.31.19M294.99,166.05c.11-.06.22-.13.34-.19-.11.06-.23.13-.34.19M210.6,166.04c-.1-.05-.2-.11-.3-.17.1.06.2.11.3.17M294.26,166.43c.1-.05.21-.1.31-.16-.1.05-.21.11-.31.16M211.34,166.43c-.09-.04-.19-.09-.28-.14.09.05.19.1.28.14M293.57,166.75c.09-.04.18-.08.27-.12-.09.04-.18.08-.27.12M212.04,166.75c-.08-.03-.17-.08-.25-.11.08.04.17.08.25.11M292.92,167c.06-.02.13-.05.2-.08-.07.02-.14.05-.2.08M212.69,167c-.06-.02-.13-.05-.19-.07.06.02.13.05.19.07M290.75,167.26c-.16-.03-.3-.08-.44-.15.14.07.28.11.44.15M213.37,167.19s-.05,0-.08-.02c.03,0,.05,0,.08.02M292.24,167.19s.05,0,.07-.01c-.03,0-.05,0-.07.01M214.69,167.28c-.11.02-.22.03-.34.03.12,0,.23-.02.34-.03h0s0,0,0,0M291.25,167.31c-.12,0-.23-.02-.33-.03.11.02.22.03.33.03M214.03,167.29c-.06,0-.12,0-.19-.01.06,0,.12,0,.19.01M291.75,167.28c-.06,0-.12,0-.18.01.06,0,.12,0,.18-.01M325.73,174.56c.5-.92,1.01-1.87,1.55-2.83-.54.97-1.06,1.91-1.55,2.83M111.79,173.92c.1,0,.19,0,.29,0,.03,0,.06,0,.08,0-.04,0-.08,0-.11,0-.09,0-.17,0-.26,0M393.43,173.91s.06,0,.09,0c.1,0,.2,0,.3,0-.09,0-.18,0-.27,0-.04,0-.08,0-.11,0M394.56,173.96c-.13-.01-.26-.02-.4-.03.14,0,.27.02.4.03M111.05,173.95c.13-.01.25-.02.39-.03-.13,0-.26.02-.39.03M113.57,173.98c-.08,0-.15-.01-.23-.02.07,0,.15.01.23.02M392.04,173.98c.07,0,.15-.01.22-.02-.07,0-.15.01-.22.02M395.24,174.04c-.12-.02-.24-.04-.37-.06.13.02.25.04.37.06M110.73,173.98c-.12.01-.23.03-.35.05.11-.02.23-.04.35-.05M395.83,174.17c-.11-.03-.22-.06-.34-.09.12.02.23.06.34.09M109.79,174.17c.1-.03.2-.06.31-.08-.11.02-.21.05-.31.08M115.01,174.13c-.09-.01-.18-.02-.27-.03.09.01.18.02.27.03M390.59,174.13c.09-.01.18-.02.27-.03-.09.01-.18.02-.27.03M396.35,174.35c-.1-.04-.19-.08-.3-.12.11.04.2.08.3.12M109.27,174.34c.09-.04.17-.08.27-.11-.1.03-.18.07-.27.11M116.78,174.4c-.11-.02-.22-.04-.32-.06.11.02.22.04.32.06M388.84,174.4c.1-.02.21-.04.31-.05-.1.02-.2.04-.31.05M396.79,174.59c-.08-.05-.16-.11-.25-.16.09.05.17.1.25.16M108.83,174.58c.07-.05.15-.1.23-.14-.08.04-.16.09-.23.14M118.43,174.71c-.08-.02-.15-.03-.23-.04.08.02.15.03.23.04M387.18,174.71c.07-.01.14-.03.21-.04-.07.01-.14.03-.21.04M397.16,174.89c-.07-.07-.14-.14-.22-.21.08.06.15.14.22.21M108.46,174.88c.06-.07.13-.13.2-.19-.08.06-.14.13-.2.19M397.48,175.34c.37.77.13,1.76-.62,2.93-.38.58-.88,1.21-1.49,1.88-.41.45-.87.91-1.37,1.39.5-.48.96-.94,1.37-1.39.61-.67,1.11-1.3,1.49-1.88.75-1.17,1-2.16.62-2.93-.06-.13-.14-.25-.23-.36.09.11.17.23.23.36M108.12,175.33c.06-.12.14-.24.22-.34-.09.11-.16.22-.22.34M120.51,175.17c-.13-.03-.25-.06-.38-.09.12.03.25.06.38.09M385.1,175.16c.12-.03.25-.06.37-.08-.12.03-.25.06-.37.08M182.13,178.94c-.59-1.2-1.24-2.46-1.93-3.77.7,1.31,1.34,2.57,1.93,3.77M122.33,175.6s-.03,0-.05-.01c.02,0,.03,0,.05.01M383.31,175.59s-.02,0-.04,0c.01,0,.02,0,.04,0M325.06,175.83c-.41.79-.81,1.56-1.18,2.3.38-.75.77-1.52,1.18-2.3,0-.01.01-.03.02-.04,0,.01-.01.02-.02.04M380.92,176.22c.14-.04.27-.07.4-.11-.13.04-.27.07-.4.11M124.67,176.21c-.13-.03-.26-.07-.39-.1.13.03.26.07.39.1M108.08,176.88c-.07-.24-.12-.48-.13-.7,0,.22.06.45.13.7M378.83,176.79s.05-.01.07-.02c-.02,0-.05.01-.07.02M108.6,178.04c-.16-.27-.3-.53-.4-.78.1.25.24.51.4.78M376.37,177.5c.14-.04.27-.08.41-.12-.14.04-.27.08-.41.12M129.19,177.49c-.11-.03-.22-.07-.33-.1.11.03.22.06.33.1M373.97,178.22c.08-.02.17-.05.25-.08-.08.02-.17.05-.25.08M131.52,178.18s-.07-.02-.1-.03c.03.01.07.02.1.03M110.85,180.8c-.8-.81-1.44-1.57-1.93-2.27.48.7,1.13,1.46,1.93,2.27M371.55,178.96c.12-.04.24-.07.36-.11-.12.04-.24.07-.36.11M133.98,178.94c-.06-.02-.12-.04-.18-.06.06.02.12.04.18.06M368.9,179.79c.13-.04.26-.08.39-.12-.13.04-.26.08-.39.12M136.47,179.72s-.04-.01-.06-.02c.02,0,.04.01.06.02M366.52,180.55c.08-.03.17-.05.25-.08-.08.03-.17.05-.25.08M110.97,180.93c12.26,12.29,57.56,36.26,57.56,44.4,0,.15-.02.3-.05.44-.09.41-.35.81-.74,1.19.4-.38.65-.78.74-1.19.03-.14.05-.29.05-.44,0-8.14-45.31-32.11-57.56-44.4-.03-.03-.06-.06-.09-.09.03.03.06.06.09.09M363.71,181.46c.16-.05.31-.1.47-.15-.16.05-.31.1-.47.15M183.96,182.96c-.16-.4-.34-.8-.52-1.22.18.42.36.82.52,1.22M361.44,182.2s-.05.01-.07.02c.02,0,.05-.01.07-.02M356.18,183.92c.92-.3,1.84-.6,2.76-.9-.92.3-1.84.6-2.76.9M184.75,185.01c-.14-.39-.29-.8-.45-1.22.16.42.32.83.45,1.22M356.09,183.95c-.77.25-1.53.5-2.3.75.76-.25,1.53-.5,2.3-.75M151.11,184.47l-.1-.03.1.03M351,185.6c.79-.25,1.59-.51,2.39-.77-.8.26-1.59.52-2.39.77M153.8,185.34c-.4-.13-.8-.26-1.2-.39.4.13.8.26,1.2.39M185.31,186.85c-.1-.39-.22-.8-.36-1.22.14.43.26.83.36,1.22M348.6,186.37c.74-.23,1.48-.47,2.23-.71-.75.24-1.49.48-2.23.71M156.6,186.24c-.43-.14-.86-.27-1.29-.41.43.14.86.28,1.29.41M345.98,187.19c.76-.24,1.52-.48,2.29-.72-.77.24-1.54.48-2.29.72M159.48,187.15c-.65-.2-1.3-.41-1.96-.62.66.21,1.31.41,1.96.62M185.63,188.46c-.05-.38-.12-.79-.22-1.22.1.43.18.84.22,1.22M343.62,187.92c.68-.21,1.36-.42,2.05-.63-.69.21-1.37.42-2.05.63M161.74,187.84c-.52-.16-1.04-.32-1.57-.48.53.16,1.05.32,1.57.48M341.17,188.65c.71-.21,1.42-.42,2.15-.64-.73.22-1.44.43-2.15.64M164.34,188.62c-.65-.19-1.3-.39-1.96-.59.66.2,1.31.4,1.96.59M185.69,189.32c0,.78-.16,1.4-.51,1.83,0,0,0,0,0,0,0,0,0,0,0,0,.35-.43.51-1.05.51-1.83,0-.22-.01-.46-.04-.71.03.25.04.49.04.71M338.78,189.34c.66-.19,1.33-.38,2-.58-.68.2-1.35.39-2,.58M166.63,189.29c-.56-.16-1.13-.32-1.7-.49.57.17,1.14.33,1.7.49M338.65,189.38c-.67.19-1.33.37-1.98.55-.01,0-.02,0-.03,0,.01,0,.02,0,.03,0,.65-.18,1.31-.36,1.98-.55M168.9,189.92c-.62-.17-1.25-.34-1.9-.52.64.18,1.28.35,1.9.52M332.48,190.98c1.2-.28,2.46-.59,3.77-.94-1.31.35-2.57.67-3.77.94M171.28,190.54c-.61-.15-1.23-.31-1.86-.48.63.17,1.25.33,1.86.48M173.09,190.97c-.57-.13-1.14-.27-1.74-.42.59.15,1.17.29,1.74.42M332.08,191.07c-.57.13-1.14.25-1.68.36.54-.11,1.1-.23,1.68-.36,0,0,.02,0,.03,0,0,0-.02,0-.03,0M175.19,191.43c-.54-.11-1.1-.23-1.67-.36.57.13,1.13.25,1.67.36M184.78,191.52s.08-.05.11-.08c-.03.03-.08.05-.11.08M320.82,191.52s-.08-.05-.11-.08c.03.03.08.05.11.08M328.76,191.74c.47-.08.96-.17,1.46-.27-.5.1-.99.19-1.46.27M176.82,191.74c-.46-.08-.93-.17-1.42-.27.49.1.96.19,1.42.27M321.23,191.76c-.05-.03-.11-.05-.16-.08.05.03.1.05.16.08M184.37,191.76c.05-.02.1-.05.15-.08-.05.03-.1.05-.15.08M327,192.02c.46-.06.95-.13,1.45-.22-.5.08-.99.16-1.45.22M178.6,192.02c-.46-.06-.94-.13-1.44-.22.5.08.98.16,1.44.22M321.7,191.94c-.06-.02-.12-.04-.18-.06.06.02.12.04.18.06M183.9,191.94c.06-.02.12-.04.18-.06-.06.02-.12.04-.18.06M322.24,192.08c-.06-.01-.12-.03-.18-.04.06.01.12.03.18.04M183.37,192.08c.06-.01.11-.03.17-.04-.06.01-.11.03-.17.04M325.58,192.16c.38-.03.77-.07,1.18-.12-.41.05-.8.09-1.18.12M180.02,192.16c-.38-.03-.77-.07-1.17-.12.41.05.8.09,1.17.12M322.83,192.17s-.02,0-.03,0c.01,0,.02,0,.03,0M182.77,192.17s.01,0,.02,0c0,0-.01,0-.02,0M181.42,192.23c-.37,0-.76-.02-1.17-.05.41.03.8.04,1.17.05M324.18,192.23c.37,0,.76-.02,1.17-.05-.41.03-.8.04-1.17.05M181.86,192.23c.08,0,.16,0,.24,0-.08,0-.16,0-.24,0M323.74,192.23c-.08,0-.16,0-.24,0,.08,0,.16,0,.24,0M337.07,225.33c0,.15.02.3.05.44.12.53.5,1.03,1.11,1.5-.6-.48-.99-.97-1.11-1.5-.03-.14-.05-.29-.05-.44,0-1.7,1.97-4.08,5.19-6.9,1.76-1.54,3.88-3.2,6.27-4.96,1.19-.88,2.45-1.78,3.76-2.7-1.31.92-2.57,1.82-3.76,2.7-2.39,1.76-4.52,3.42-6.27,4.96-3.22,2.82-5.19,5.2-5.19,6.9M339.46,228.06c-.4-.21-.75-.43-1.06-.65.31.22.66.44,1.06.65M166.41,227.91c.26-.15.51-.3.72-.45-.22.15-.46.31-.72.45M346.34,230.39c-.2-.05-.4-.1-.59-.15.2.05.39.1.59.15M350.15,231.23c-.65-.13-1.28-.27-1.89-.4.61.14,1.24.27,1.89.4M357.5,232.55c-1.77-.28-3.47-.58-5.08-.88,1.61.3,3.31.59,5.08.88M148.1,232.55c1.67-.27,3.28-.54,4.81-.82-1.53.28-3.14.56-4.81.82M360.68,233.04c-.16-.02-.31-.05-.47-.07.15.02.31.05.47.07M144.92,233.04c.16-.02.31-.05.47-.07-.15.02-.31.05-.47.07M367.44,234.02c-.65-.09-1.29-.18-1.93-.27.64.09,1.28.18,1.93.27M378,235.45c-1.25-.17-2.51-.34-3.77-.51-1.18-.16-2.35-.32-3.52-.47,1.17.16,2.34.32,3.52.47,1.26.17,2.51.34,3.77.51M131.37,234.94c1.18-.16,2.35-.32,3.52-.47-1.17.16-2.34.32-3.52.47M127.61,235.45c.67-.09,1.33-.18,2-.27-.67.09-1.33.18-2,.27M413.37,245.04c0,3.54-10.44,5.9-23.6,7.92-1.1.17-2.21.34-3.34.5-5.65.82-11.66,1.6-17.47,2.4,5.81-.8,11.82-1.57,17.47-2.4,1.13-.16,2.25-.33,3.34-.5,13.16-2.02,23.6-4.38,23.6-7.92,0-2.66-5.87-4.65-14.36-6.33-2.83-.56-5.95-1.09-9.24-1.59-1.1-.17-2.21-.34-3.34-.5-1.21-.18-2.43-.35-3.67-.52,1.24.17,2.46.35,3.67.52,1.13.16,2.25.33,3.34.5,3.29.51,6.41,1.03,9.24,1.59,8.49,1.68,14.36,3.67,14.36,6.33M119.17,236.62c1.21-.18,2.43-.35,3.67-.52-1.24.17-2.46.35-3.67.52M92.23,245.04c0,2.66,5.87,4.65,14.36,6.33,2.83.56,5.95,1.09,9.24,1.59,1.1.17,2.21.34,3.34.5,1.21.18,2.43.35,3.67.52-1.24-.17-2.46-.35-3.67-.52-1.13-.16-2.25-.33-3.34-.5-3.29-.51-6.41-1.03-9.24-1.59-8.49-1.68-14.36-3.67-14.36-6.33s5.87-4.65,14.36-6.33c2.83-.56,5.95-1.09,9.24-1.59-3.29.51-6.41,1.03-9.24,1.59-8.49,1.68-14.36,3.67-14.36,6.33M129.61,254.91c-.67-.09-1.33-.18-2-.27.67.09,1.33.18,2,.27M134.89,255.62c-1.17-.16-2.34-.32-3.52-.47,1.18.16,2.35.32,3.52.47M140.1,256.34c-.64-.09-1.28-.18-1.93-.27.65.09,1.29.18,1.93.27M351.26,258.63c3.29-.64,6.97-1.23,10.86-1.8-3.89.57-7.58,1.17-10.86,1.8M145.38,257.12c-.15-.02-.31-.05-.47-.07.16.02.31.05.47.07M153.18,258.42c-1.61-.3-3.31-.59-5.08-.88,1.77.28,3.47.58,5.08.88M157.35,259.26c-.61-.14-1.24-.27-1.89-.4.65.13,1.28.27,1.89.4M340.97,261.34c.56-.22,1.16-.44,1.82-.65.98-.32,2.08-.62,3.26-.92.79-.2,1.62-.39,2.49-.58-.87.19-1.7.38-2.49.58-1.19.3-2.28.6-3.26.92-.66.21-1.26.43-1.82.65M159.85,259.85c-.2-.05-.39-.1-.59-.15.2.05.4.1.59.15M339.27,268.77c.4.45.85.91,1.35,1.4.75.72,1.6,1.48,2.54,2.27-.94-.79-1.79-1.55-2.54-2.27-.5-.48-.95-.95-1.35-1.4-1.61-1.79-2.42-3.31-2.16-4.45.22-.97,1.3-1.84,3.06-2.64-1.76.8-2.84,1.67-3.06,2.64-.26,1.14.55,2.66,2.16,4.45M167.2,262.69c-.31-.22-.66-.44-1.06-.65.4.21.75.43,1.06.65M168.49,264.32c.03.14.05.29.05.44,0,1.7-1.97,4.08-5.19,6.9-1.76,1.54-3.88,3.2-6.27,4.96-.8.59-1.62,1.18-2.47,1.78.85-.6,1.67-1.2,2.47-1.78,2.39-1.76,4.52-3.42,6.27-4.96,3.22-2.82,5.19-5.2,5.19-6.9,0-.15-.02-.3-.05-.44-.12-.53-.5-1.03-1.11-1.5.6.48.99.97,1.11,1.5M351.38,278.67c-.55-.39-1.1-.78-1.63-1.17-.82-.59-1.62-1.18-2.39-1.76-1.15-.86-2.23-1.7-3.22-2.51,1,.81,2.08,1.65,3.22,2.51.77.58,1.56,1.16,2.39,1.76.53.39,1.08.77,1.63,1.17M359.67,284.35c-.32-.21-.63-.42-.95-.64.31.21.63.42.95.64M362.59,286.29c-.33-.22-.66-.44-.99-.65.33.22.66.44.99.65M365.55,288.25c-.34-.22-.67-.44-1.01-.67.34.22.67.44,1.01.67M368.52,290.2c-.34-.22-.68-.45-1.01-.67.34.22.68.45,1.01.67M380.01,297.87c-.29-.2-.58-.4-.87-.59.29.2.58.4.87.59M180.25,297.9c.41-.03.8-.04,1.17-.05-.37,0-.76.02-1.17.05M324.75,297.87c.2,0,.4.02.6.03-.21-.01-.41-.03-.6-.03-.2,0-.39-.01-.57-.01.19,0,.38,0,.57.01M182.1,297.87c-.08,0-.16,0-.25,0,.08,0,.17,0,.25,0M323.74,297.86c-.08,0-.16,0-.24,0,.08,0,.16,0,.24,0M182.81,297.92s-.03,0-.04,0c.02,0,.03,0,.04,0M322.83,297.92s0,0,0,0c0,0,0,0,0,0M326.77,298.05c-.42-.05-.82-.09-1.2-.12.38.03.78.07,1.2.12M178.85,298.04c.4-.05.79-.09,1.16-.12-.37.03-.76.07-1.16.12M183.55,298.05c-.06-.01-.12-.03-.18-.04.06.01.12.03.18.04M322.06,298.05c.06-.01.11-.03.17-.04-.06.01-.11.03-.17.04M328.46,298.29c-.51-.08-1-.16-1.47-.22.47.06.96.14,1.47.22M177.16,298.29c.5-.08.98-.16,1.44-.22-.46.06-.94.13-1.44.22M184.08,298.21c-.06-.02-.12-.04-.18-.06.06.02.12.04.18.06M321.52,298.21c.06-.02.11-.04.17-.06-.06.02-.12.04-.17.06M184.53,298.41c-.05-.03-.1-.05-.16-.08.05.03.11.05.16.08M321.08,298.41s.1-.05.15-.08c-.05.02-.1.05-.15.08M330.26,298.63c-.52-.1-1.02-.2-1.51-.28.49.08.99.18,1.51.28M175.4,298.61c.49-.1.96-.19,1.42-.27-.46.08-.93.17-1.42.27M184.89,298.65s-.08-.05-.11-.08c.04.03.08.05.11.08M320.71,298.65s.08-.05.11-.08c-.04.03-.08.05-.11.08M332.12,299.03c-.59-.14-1.18-.26-1.74-.38.56.11,1.14.24,1.74.38M175.2,298.65c-.54.11-1.11.23-1.68.36.57-.13,1.14-.25,1.68-.36M319.91,300.77c0,.22.01.46.04.71-.03-.25-.04-.49-.04-.71,0-.78.16-1.4.51-1.83,0,0,0,0,0,0,0,0,0,0,0,0-.35.43-.51,1.05-.51,1.83M336.24,300.05s.02,0,.03,0c-.01,0-.02,0-.03,0-1.32-.35-2.58-.67-3.78-.95,1.2.28,2.47.6,3.78.95M171.34,299.54c.6-.15,1.18-.29,1.76-.42-.57.13-1.16.27-1.76.42M185.38,299.26s.02.03.03.05c0-.02-.02-.04-.03-.05,0-.01-.02-.02-.02-.04,0,.01.01.02.02.04M169.39,300.04c.65-.17,1.29-.34,1.91-.49-.62.16-1.26.32-1.91.49M338.67,300.72c-.7-.2-1.38-.38-2.05-.56.67.18,1.35.37,2.05.56M166.98,300.7c.67-.19,1.32-.37,1.96-.54-.64.17-1.29.35-1.96.54M340.83,301.34c-.71-.21-1.41-.41-2.09-.6.69.19,1.39.4,2.09.6M164.86,301.31c.63-.19,1.26-.37,1.88-.54-.62.17-1.24.36-1.88.54M343.34,302.09c-.74-.23-1.48-.44-2.2-.66.72.21,1.46.43,2.2.66M162.31,302.07c.71-.21,1.41-.42,2.1-.63-.69.2-1.39.41-2.1.63M320.19,302.85c-.1-.43-.18-.84-.22-1.22.05.38.12.79.22,1.22M386.35,302.35c-.21-.16-.43-.31-.65-.47.22.16.43.32.65.47M345.72,302.82c-.73-.23-1.45-.45-2.17-.67.71.22,1.44.44,2.17.67M159.96,302.79c.66-.21,1.32-.41,1.97-.61-.65.2-1.31.4-1.97.61M348.29,303.63c-.79-.25-1.57-.5-2.34-.74.77.24,1.56.49,2.34.74M157.35,303.61c.76-.24,1.51-.48,2.26-.71-.75.23-1.5.47-2.26.71M320.65,304.46c-.14-.43-.26-.83-.36-1.22.1.39.22.8.36,1.22M388.6,304.03c-.17-.13-.35-.27-.53-.4.18.13.35.27.53.4M350.92,304.46c-.79-.25-1.57-.5-2.35-.75.78.25,1.56.5,2.35.75M154.73,304.45c.75-.24,1.5-.48,2.25-.72-.74.24-1.49.47-2.25.72M353.47,305.29c-.84-.27-1.68-.54-2.51-.81.83.27,1.67.54,2.51.81M152.14,305.28c.83-.27,1.66-.54,2.49-.8-.82.27-1.65.53-2.49.8M321.31,306.3c-.16-.42-.32-.83-.45-1.22.14.39.29.8.45,1.22M394.68,309.21s.03.03.04.04c-.01-.01-.03-.03-.04-.04-1.18-1.19-2.69-2.5-4.43-3.89,1.74,1.39,3.24,2.7,4.43,3.89M143.39,308.14c2.85-.93,5.72-1.87,8.56-2.79-2.84.92-5.71,1.86-8.56,2.79M359.3,307.19c-1.88-.62-3.77-1.23-5.64-1.84,1.87.61,3.75,1.22,5.64,1.84M322.17,308.35c-.18-.42-.36-.82-.52-1.22.16.4.34.8.52,1.22M361.76,307.99c-.46-.15-.91-.3-1.37-.45.46.15.91.3,1.37.45M141.2,308.85c.37-.12.73-.24,1.1-.36-.37.12-.74.24-1.1.36M364.23,308.8c-.21-.07-.42-.14-.63-.2.21.07.42.14.63.2M110.88,309.25s-.02.02-.03.03c.01-.01.02-.02.03-.03M396.34,311.09c-.43-.57-.96-1.17-1.59-1.8.62.63,1.16,1.24,1.59,1.8M138.49,309.73c.25-.08.5-.16.76-.24-.25.08-.5.16-.76.24M366.67,309.58c.07.02.13.04.2.06-.07-.02-.13-.04-.2-.06-.07-.02-.13-.04-.2-.06.07.02.13.04.2.06M136.18,310.46c.27-.09.54-.17.81-.26-.27.09-.54.17-.81.26M369.31,310.42c-.15-.05-.29-.09-.44-.14.15.05.29.09.44.14M109.03,311.4c.21-.29.43-.58.69-.89-.26.31-.49.6-.69.89M133.49,311.3c.23-.07.46-.14.7-.22-.23.07-.46.14-.7.22M371.96,311.26c-.15-.05-.29-.09-.44-.14.15.05.29.09.44.14M323.49,311.17c.58,1.19,1.23,2.44,1.92,3.74-.69-1.3-1.33-2.55-1.92-3.74,0,0,0-.02-.01-.03,0,0,0,.02.01.03M131.3,311.97c.19-.06.39-.12.58-.18-.19.06-.39.12-.58.18M374.24,311.95c-.11-.03-.22-.07-.33-.1.11.03.22.07.33.1M397.31,312.63c-.09-.19-.19-.38-.31-.58.12.2.22.39.31.58M108.41,312.39c-.3.58-.46,1.11-.46,1.58,0,.28.06.54.17.78.06.13.14.25.23.36-.09-.11-.17-.23-.23-.36-.12-.24-.17-.5-.17-.78,0-.47.16-1,.46-1.58M128.7,312.75c.21-.06.42-.12.64-.19-.21.06-.43.12-.64.19M376.81,312.72c-.15-.04-.3-.09-.45-.13.15.04.3.09.45.13M126.64,313.34c.12-.03.25-.07.37-.11-.12.03-.25.07-.37.11M397.66,313.9c0-.2-.05-.41-.11-.63.06.22.1.43.11.63M378.91,313.32s-.07-.02-.11-.03c.03,0,.07.02.11.03M124.21,314c.19-.05.37-.1.56-.15-.19.05-.37.1-.56.15M381.34,313.99c-.14-.04-.29-.08-.44-.12.15.04.29.08.44.12M122.27,314.5s-.07.02-.11.03c.04,0,.07-.02.11-.03.04,0,.07-.02.11-.03-.04,0-.07.02-.11.03M383.36,314.51s-.07-.02-.1-.03c.03,0,.07.02.1.03M397.25,315.1c.09-.11.16-.22.22-.34-.06.12-.14.24-.22.34M120.56,314.91c-.16.04-.31.07-.47.11.15-.03.31-.07.47-.11M385.48,315.01c-.13-.03-.27-.06-.4-.09.13.03.27.06.4.09M108.56,315.32s.07.06.1.09c-.04-.03-.07-.06-.1-.09-.04-.04-.08-.08-.12-.12.04.04.08.08.12.12M396.94,315.4c.08-.06.14-.13.2-.19-.06.07-.13.13-.2.19M118.16,315.43c.1-.02.19-.04.29-.06-.1.02-.19.04-.29.06M387.41,315.42c-.08-.02-.16-.03-.24-.05.08.02.16.03.24.05M109.07,315.65c-.09-.05-.17-.1-.25-.16.08.05.16.11.25.16M396.54,315.65c.08-.04.16-.09.23-.14-.07.05-.15.1-.23.14M116.45,315.74c.12-.02.24-.04.36-.06-.12.02-.24.04-.36.06M389.15,315.74c-.11-.02-.22-.04-.32-.06.11.02.22.04.32.06M109.55,315.85c-.1-.03-.2-.08-.29-.12.09.04.19.08.29.12M396.06,315.85c.1-.03.18-.07.27-.11-.09.04-.17.08-.27.11M110.1,316c-.12-.02-.22-.06-.33-.09.11.03.22.06.33.09M395.5,316c.11-.02.21-.05.31-.08-.1.03-.2.06-.31.08M114.73,315.99c.1-.01.19-.02.29-.04-.1.01-.2.02-.29.04M390.87,315.99c-.09-.01-.18-.02-.27-.03.09.01.18.02.27.03M110.74,316.11c-.13-.02-.25-.04-.37-.06.12.02.24.04.37.06M395.22,316.05c-.11.02-.23.04-.35.05.12-.01.23-.03.35-.05M113.58,316.11c-.08,0-.16.02-.24.02.08,0,.16-.01.24-.02M392.26,316.13c-.07,0-.15-.01-.23-.02.08,0,.15.01.23.02M111.44,316.16c-.14,0-.27-.02-.4-.03.13.01.26.02.4.03M394.16,316.16c.13,0,.26-.02.39-.03-.13.01-.25.02-.39.03M112.05,316.18s.07,0,.11,0h0,0s-.05,0-.07,0c-.11,0-.21,0-.31,0,.09,0,.18,0,.27,0M393.81,316.17c-.1,0-.19,0-.29,0-.03,0-.06,0-.08,0,.04,0,.08,0,.11,0,.09,0,.17,0,.26,0M330.93,324.72c-.58-.98-1.14-1.96-1.69-2.92-.83-1.44-1.62-2.85-2.38-4.22.76,1.37,1.55,2.78,2.38,4.22.55.96,1.12,1.93,1.69,2.92M291.25,322.78c-.12,0-.23.02-.34.03.11-.02.22-.03.34-.03M214.69,322.81c-.11-.02-.22-.03-.34-.03.12,0,.23.02.34.03M291.76,322.81c-.07,0-.13,0-.2-.01.07,0,.13,0,.2.01M213.85,322.81c.06,0,.12,0,.18-.01-.06,0-.12,0-.18.01M217.6,329.34c-.09-1.03-.22-1.96-.39-2.77-.11-.54-.24-1.03-.39-1.46-.38-1.08-.87-1.81-1.52-2.12-.14-.07-.29-.11-.44-.15.16.03.31.08.44.15.64.31,1.14,1.04,1.52,2.12.15.43.28.92.39,1.46.17.81.3,1.74.39,2.77M287.81,334.43c0,.71,0,1.45.02,2.2-.02-.76-.02-1.49-.02-2.2,0-6.22.65-10.56,2.5-11.45.14-.07.29-.11.44-.15-.16.03-.31.08-.44.15-1.85.89-2.5,5.23-2.5,11.45M292.36,322.93c-.07-.02-.14-.03-.21-.04.07.01.14.03.21.04M213.29,322.91s.05,0,.08-.02c-.03,0-.05,0-.08.02M293.21,323.21c-.1-.04-.21-.08-.3-.11.1.03.2.08.3.11M212.49,323.17c.07-.02.14-.05.2-.08-.06.02-.13.05-.2.08M293.9,323.5c-.12-.05-.24-.11-.35-.16.11.05.23.1.35.16M211.77,323.46c.09-.04.18-.08.27-.12-.09.04-.18.08-.27.12M294.62,323.85c-.13-.07-.26-.14-.39-.2.13.06.26.13.39.2M211.04,323.82c.1-.05.21-.11.31-.16-.1.05-.21.1-.31.16M295.38,324.26c-.14-.08-.28-.16-.42-.24.14.08.28.16.42.24M210.28,324.23c.11-.06.23-.13.34-.19-.11.06-.22.13-.34.19M296.18,324.74c-.15-.1-.3-.19-.45-.28.15.09.3.18.45.28M209.48,324.71c.12-.07.24-.15.36-.22-.12.07-.24.14-.36.22M296.9,325.21s.07.05.11.07c-.04-.02-.07-.05-.11-.07-.13-.08-.26-.17-.38-.25.13.08.25.16.38.25M208.65,325.24c.13-.08.26-.17.38-.25-.13.08-.25.16-.38.25M297.61,325.68c.09.06.17.12.26.18-.09-.06-.18-.12-.26-.18-.09-.06-.17-.12-.26-.18.09.06.17.12.26.18M207.79,325.83c.13-.09.27-.18.4-.27-.13.09-.26.18-.4.27M298.77,326.51c-.19-.14-.38-.28-.57-.41.19.13.38.27.57.41M206.89,326.47c.14-.1.27-.2.41-.3-.14.1-.27.19-.41.3M299.7,327.2c-.21-.16-.42-.32-.63-.47.21.15.42.31.63.47M205.96,327.16c.15-.11.29-.22.43-.32-.14.11-.29.21-.43.32M304.51,331.12c-1.62-1.39-3.16-2.66-4.6-3.76,1.44,1.1,2.98,2.37,4.6,3.76M205,327.9c.15-.12.29-.23.44-.34-.15.11-.29.22-.44.34M334.49,330.73c-.6-1.01-1.21-2.02-1.8-3.02.59,1,1.19,2.01,1.8,3.02M204.47,328.33c-.4.32-.81.65-1.23,1,.42-.34.83-.68,1.23-1M202.44,329.98c.2-.17.4-.34.6-.5-.2.16-.4.34-.6.5M202.01,330.34c-.21.17-.42.35-.63.53.21-.18.42-.36.63-.53M217.8,334.42c0,.72,0,1.46-.03,2.23.02-.77.03-1.51.03-2.23,0-1.45-.04-2.79-.11-4.02.08,1.22.11,2.57.11,4.02M305.49,331.98c-.31-.27-.61-.53-.91-.79.3.26.61.52.91.79M200.31,331.8c.22-.19.43-.38.64-.56-.21.18-.43.37-.64.56M253.39,331.6s-.09-.04-.14-.05c.05.01.09.03.14.05M252.21,331.6s.1-.04.14-.05c-.05.01-.1.03-.14.05M253.88,331.8c-.06-.03-.12-.07-.17-.09.06.02.11.06.17.09M251.72,331.8c.06-.03.12-.07.18-.09-.06.03-.12.06-.18.09M251.22,332.11c.07-.05.14-.1.21-.15-.07.04-.14.1-.21.15M254.37,332.1c-.06-.05-.13-.1-.19-.14.06.04.13.09.19.14M306.54,332.9c-.3-.27-.6-.53-.9-.79.3.26.6.52.9.79M199.21,332.77c.23-.2.45-.4.67-.59-.22.2-.45.39-.67.59M250.73,332.5c.07-.07.15-.14.22-.2-.07.06-.15.13-.22.2M254.86,332.49c-.07-.06-.14-.13-.21-.18.07.06.14.12.21.18M250.23,332.99c.08-.08.16-.17.23-.25-.08.08-.16.16-.23.25M255.36,332.97c-.07-.08-.15-.16-.22-.23.07.07.14.15.22.23M307.64,333.88c-.31-.28-.61-.55-.92-.82.3.27.61.54.92.82M198.08,333.77c.24-.21.48-.43.71-.64-.24.21-.47.42-.71.64M249.72,333.56c.08-.1.17-.2.25-.29-.08.09-.17.2-.25.29M255.86,333.53c-.07-.09-.15-.18-.22-.27.07.08.15.18.22.27M249.21,334.21c.09-.11.17-.23.26-.34-.08.11-.17.23-.26.34M256.37,334.18c-.08-.1-.15-.21-.23-.31.08.1.15.2.23.31M308.75,334.88c-.32-.29-.63-.57-.94-.85.31.28.63.56.94.85M196.94,334.81c.26-.23.51-.46.76-.69-.25.23-.51.46-.76.69M248.68,334.94c.09-.13.18-.26.26-.38-.09.12-.18.26-.26.38M256.9,334.91c-.08-.11-.16-.23-.24-.34.08.11.16.23.24.34M309.9,335.93c-.33-.31-.67-.61-1-.91.33.3.66.6,1,.91M195.77,335.86c.28-.26.56-.51.83-.76-.28.25-.55.5-.83.76M248.15,335.75c.09-.14.18-.29.27-.42-.09.14-.18.28-.27.42M257.42,335.71c-.08-.12-.16-.25-.24-.37.08.12.16.25.24.37M330.92,355.82c-6.83-6.36-14.27-13.69-20.96-19.83,6.69,6.14,14.13,13.47,20.96,19.83M194.6,336.94c.31-.28.61-.56.92-.84-.3.28-.61.56-.92.84M247.61,336.65c.09-.16.19-.32.28-.48-.09.15-.19.32-.28.48M257.96,336.59c-.08-.14-.16-.28-.24-.41.08.13.16.27.24.41M290.97,397.29s0,0,0,.01c0,0,0,0,0,0-.45,2.49-1.23,4.04-2.46,4.32-.12.03-.24.04-.37.04-.01,0-.02,0-.03,0h0,0s.02,0,.03,0c.12,0,.25-.01.37-.04,1.23-.28,2.01-1.83,2.46-4.32,0,0,0,0,0,0,0,0,0,0,0-.01,2.06-11.4-2.74-42.38-3.14-60.59.4,18.21,5.2,49.19,3.14,60.59M171.05,359.16c7.37-6.67,15.82-15.06,23.42-22.1-7.61,7.04-16.06,15.42-23.42,22.1M247.35,337.08c-.1.17-.2.35-.3.53.1-.18.2-.36.3-.53M258.51,337.54c-.08-.15-.17-.3-.25-.45.08.15.17.3.25.45M246.5,338.62c.1-.19.2-.38.3-.57-.1.18-.2.38-.3.57M259.06,338.54c-.08-.16-.17-.32-.25-.47.08.15.17.31.25.47M245.94,339.7c.1-.2.2-.41.31-.6-.1.2-.2.4-.31.6M259.61,339.61c-.08-.16-.17-.33-.25-.49.08.16.17.33.25.49M217.53,342.48c.06-.99.1-1.96.14-2.9-.04.94-.09,1.91-.14,2.9M245.38,340.85c.1-.21.21-.43.31-.64-.1.21-.21.42-.31.64M260.18,340.75c-.08-.17-.17-.35-.25-.52.08.17.17.34.25.52M244.8,342.05c.11-.23.22-.46.32-.68-.11.22-.21.45-.32.68M260.75,341.94c-.08-.18-.17-.36-.25-.54.08.18.17.36.25.54M163,344.36c.4-.68.8-1.36,1.2-2.04-.4.68-.81,1.37-1.2,2.04M244.22,343.32c.11-.25.22-.49.34-.74-.11.24-.22.49-.34.74M261.32,343.18c-.09-.19-.17-.38-.26-.56.08.18.17.37.26.56M243.62,344.65c.12-.27.24-.53.35-.79-.12.26-.23.53-.35.79M261.91,344.48c-.09-.2-.17-.39-.26-.59.09.19.17.39.26.59M344.3,347.28c-.55-.96-1.12-1.94-1.7-2.92.58.99,1.14,1.96,1.7,2.92M243.03,346.01c.12-.28.24-.57.37-.85-.12.28-.24.56-.37.85M262.49,345.83c-.09-.2-.17-.41-.26-.6.09.2.17.4.26.6M162.14,345.82c-.39.66-.76,1.32-1.14,1.97.37-.65.75-1.31,1.14-1.97M242.44,347.4c.12-.29.25-.59.37-.88-.12.29-.25.58-.37.88M263.08,347.2c-.09-.2-.17-.41-.26-.61.09.2.17.41.26.61M241.95,348.57c-.04.09-.07.18-.11.27.04-.09.07-.18.11-.27.09-.21.18-.43.27-.64-.09.21-.18.43-.27.64M263.67,348.62c-.08-.2-.17-.41-.25-.61.08.2.17.4.25.61M241.62,349.36c-.13.32-.26.64-.39.96.13-.32.26-.64.39-.96M264.28,350.09c-.09-.21-.17-.43-.26-.64.09.21.17.42.26.64M345.94,350.16c.51.92,1.01,1.82,1.49,2.7-.48-.88-.98-1.78-1.49-2.7,0-.01-.02-.03-.02-.04,0,.01.02.03.02.04M240.62,351.84c.13-.33.27-.67.4-1-.13.33-.27.66-.4,1M264.88,351.59c-.09-.22-.18-.44-.26-.66.09.22.17.44.26.66M240,353.42c.14-.36.29-.73.43-1.09-.14.36-.29.72-.43,1.09M265.49,353.11c-.09-.22-.17-.43-.26-.65.09.22.17.43.26.65M216.52,355.79c.09-1.07.19-2.13.28-3.18-.09,1.05-.18,2.11-.28,3.18M157.09,354.87c.35-.66.7-1.33,1.08-2.01-.37.68-.73,1.35-1.08,2.01M239.38,354.99c.15-.38.3-.76.44-1.14-.15.38-.3.76-.44,1.14M266.1,354.68c-.09-.22-.17-.45-.26-.67.09.22.17.44.26.67M238.75,356.64c.16-.41.32-.83.48-1.24-.16.41-.32.82-.48,1.24M352.8,364.24c1.1,3.16,1.28,5.41.13,6.33h0c1.15-.92.97-3.17-.13-6.33-.09-.26-.19-.53-.29-.8-.61-1.63-1.44-3.47-2.42-5.48-.4-.8-.82-1.63-1.26-2.48.44.85.87,1.68,1.26,2.48.99,2.01,1.81,3.85,2.42,5.48.1.27.2.54.29.8M266.7,356.23c-.08-.22-.17-.43-.25-.65.08.22.17.43.25.65M332.09,356.9c-.36-.33-.72-.66-1.08-1,.36.34.72.67,1.08,1M238.12,358.28c.17-.45.34-.89.51-1.33-.17.44-.34.88-.51,1.33M267.31,357.83c-.08-.21-.16-.42-.24-.62.08.21.16.42.24.62M333.25,357.97c-.27-.25-.55-.51-.83-.76.28.26.55.51.83.76M155.32,358.35c.13-.26.26-.53.39-.79-.13.27-.26.53-.39.79M334.4,359.02c-.25-.22-.49-.45-.74-.67.25.23.5.45.74.67M237.47,359.98c.18-.49.37-.97.55-1.45-.18.48-.37.97-.55,1.45M267.93,359.46c-.08-.22-.16-.43-.25-.65.08.22.16.43.25.65M171,359.2c-.37.33-.74.66-1.1.99.36-.33.73-.65,1.1-.99M335.53,360.04c-.23-.21-.46-.41-.69-.62.23.21.46.42.69.62M232.25,373.9c1.72-4.54,3.46-9.26,5.18-13.82-1.73,4.56-3.47,9.28-5.18,13.82M168.79,361.18c.33-.29.67-.59,1.01-.9-.34.3-.68.6-1.01.9M268.53,361.04c-.07-.19-.15-.39-.22-.58.07.19.15.39.22.58M336.64,361.03c-.21-.19-.43-.38-.64-.57.21.19.43.38.64.57M167.67,362.16c.31-.27.63-.55.95-.83-.32.28-.64.56-.95.83M337.74,361.99c-.21-.18-.41-.36-.62-.54.21.18.41.36.62.54M269.11,362.59c-.05-.14-.11-.28-.16-.42.05.14.11.28.16.42M166.55,363.12c.31-.27.63-.54.95-.81-.32.28-.63.55-.95.81M338.83,362.93c-.2-.17-.41-.35-.61-.53.21.18.41.35.61.53M153,363.69c.15-.41.31-.82.48-1.25-.18.43-.33.85-.48,1.25M166.41,363.24c-.32.28-.64.55-.96.81.32-.26.64-.53.96-.81M339.89,363.83c-.2-.17-.4-.34-.61-.51.2.17.4.34.61.51M269.69,364.12c-.03-.07-.05-.14-.08-.2.03.07.05.14.08.2M165.35,364.14c-.59.49-1.17.96-1.73,1.41-.45.36-.89.7-1.32,1.03.43-.33.87-.67,1.32-1.03.56-.45,1.14-.92,1.73-1.41M340.95,364.71c-.21-.17-.41-.34-.62-.51.21.17.42.34.62.51M342.14,365.67c-.26-.21-.53-.42-.8-.64.27.22.54.43.8.64M343.27,366.55c-.31-.24-.62-.48-.94-.73.32.25.63.5.94.73M162.25,366.61c-.3.23-.59.45-.88.66.29-.21.58-.43.88-.66M344.2,367.24c-.19-.14-.38-.28-.57-.42.19.14.38.29.57.42M160.48,367.91c.22-.16.45-.32.67-.48-.23.17-.45.33-.67.48M345.09,367.89c-.16-.12-.33-.24-.5-.36.17.12.34.24.5.36M159.63,368.49c.19-.13.38-.26.58-.39-.19.13-.39.27-.58.39M345.95,368.48c-.15-.1-.31-.21-.47-.32.16.11.31.22.47.32M158.8,369.02c.17-.11.34-.22.52-.33-.17.11-.35.22-.52.33M346.77,369.01c-.15-.09-.29-.19-.44-.28.15.1.3.19.44.28M158.49,369.22c-.16.1-.32.19-.47.28.16-.09.31-.18.47-.28M347.56,369.49c-.14-.08-.28-.16-.42-.25.14.09.28.17.42.25M157.27,369.91c.15-.08.29-.15.44-.24-.15.08-.3.16-.44.24M348.32,369.9c-.13-.07-.27-.14-.4-.22.14.08.27.15.4.22M271.84,369.87s0,0,0-.01c0,0,0,0,0,.01M156.55,370.26c.14-.06.27-.13.41-.2-.14.07-.28.13-.41.2M349.03,370.25c-.13-.06-.25-.12-.39-.18.13.07.26.12.39.18M214.95,373.51c.09-1.09.18-2.19.28-3.3-.1,1.11-.19,2.21-.28,3.3M155.88,370.55c.13-.05.26-.1.39-.16-.14.06-.26.11-.39.16M349.71,370.54c-.12-.05-.25-.09-.37-.15.13.05.25.1.37.15M155.23,370.76c.13-.04.26-.07.39-.12-.13.05-.26.08-.39.12M350.36,370.76c-.12-.04-.24-.07-.37-.12.13.04.25.08.37.12M154.57,370.92c.14-.02.29-.05.44-.09-.15.04-.3.07-.44.09M351.01,370.92c-.14-.02-.28-.05-.42-.09.15.04.29.06.42.09M153.32,370.89s-.09-.03-.14-.04c.05.02.09.03.14.04M352.28,370.89s.09-.03.14-.04c-.04.02-.09.03-.14.04M154.38,370.95c-.15.02-.28.03-.42.03h0s0,0,0,0c.13,0,.27,0,.42-.03.03,0,.05,0,.08,0-.03,0-.05,0-.08,0M351.64,370.98s0,0,0,0h0c-.16,0-.32-.01-.49-.04.17.02.34.04.49.04M272.52,371.69c-.05-.14-.11-.28-.16-.42.05.14.11.28.16.42M273.17,373.42c-.08-.2-.15-.41-.23-.61.08.2.15.41.23.61M231.66,375.46c.19-.49.38-.99.57-1.49-.19.5-.38,1-.57,1.49M273.79,375.07c-.09-.23-.17-.46-.26-.69.09.23.17.46.26.69M217.47,401.66s.02,0,.03,0h0,0s-.02,0-.03,0c-.12,0-.25-.01-.37-.04-3.57-.81-3.36-12.38-2.28-26.42-1.08,14.04-1.28,25.61,2.28,26.42.12.03.24.04.37.04M231.07,377c.17-.45.34-.9.51-1.35-.17.45-.34.9-.51,1.35M274.41,376.68c-.09-.23-.18-.46-.26-.69.09.23.18.46.26.69M230.48,378.54c.16-.41.32-.82.47-1.23-.16.41-.32.82-.47,1.23M275.02,378.26c-.09-.23-.18-.46-.26-.69.09.23.18.46.26.69M229.89,380.06c.15-.38.29-.75.44-1.13-.15.38-.29.76-.44,1.13M275.63,379.84c-.09-.23-.18-.47-.27-.7.09.23.18.47.27.7M229.71,380.51c-.14.36-.28.72-.42,1.07.14-.35.28-.71.42-1.07M276.23,381.36c-.09-.23-.18-.45-.27-.68.09.23.18.46.27.68M229.1,382.05c-.07.17-.13.33-.2.5-.07.17-.13.33-.2.5.07-.17.13-.33.2-.5.07-.17.13-.33.2-.5M276.83,382.88c-.09-.23-.18-.46-.27-.69.09.23.18.46.27.69M228.11,384.51c.13-.31.26-.63.39-.95-.13.32-.26.63-.39.95M277.43,384.35c-.09-.23-.18-.45-.28-.68.09.23.19.46.28.68M227.9,385.02c-.12.3-.25.59-.37.89.12-.29.25-.59.37-.89M278.02,385.79c-.09-.23-.19-.45-.28-.68.09.23.19.46.28.68M227.3,386.46c-.06.14-.12.28-.18.42-.06.14-.12.28-.18.41.06-.14.12-.27.18-.41.06-.14.12-.28.18-.42M278.61,387.19c-.09-.22-.19-.44-.28-.66.09.22.19.44.28.66M226.37,388.63c.11-.26.23-.53.35-.8-.12.27-.23.53-.35.8M279.19,388.54c-.09-.22-.19-.43-.28-.65.09.22.19.44.28.65M225.8,389.92c.11-.25.23-.5.34-.76-.11.26-.23.51-.34.76M279.76,389.84c-.09-.21-.19-.42-.28-.63.09.21.19.42.28.63M225.57,390.45c-.11.24-.22.48-.33.72.11-.24.22-.48.33-.72M280.33,391.08c-.09-.2-.18-.4-.27-.6.09.2.18.4.27.6M224.68,392.35c.11-.22.21-.45.32-.68-.11.23-.21.45-.32.68M280.89,392.28c-.09-.19-.18-.37-.27-.57.09.19.18.38.27.57M224.13,393.48c.1-.21.21-.42.31-.63-.1.21-.21.42-.31.63M281.45,393.43c-.09-.18-.18-.36-.27-.55.09.19.18.37.27.55M223.58,394.56c.1-.19.2-.39.3-.59-.1.2-.2.39-.3.59M282,394.51c-.09-.17-.18-.35-.27-.52.09.18.18.35.27.52M223.04,395.57c.1-.18.2-.36.29-.55-.1.19-.2.37-.29.55M282.54,395.53c-.09-.16-.18-.32-.27-.49.09.17.18.33.27.49M222.51,396.52c.1-.17.19-.33.29-.5-.1.17-.19.34-.29.5M283.07,396.48c-.09-.15-.17-.3-.26-.46.09.16.18.31.26.46M221.99,397.39c.09-.15.19-.3.28-.46-.09.16-.19.31-.28.46M283.6,397.37c-.09-.14-.18-.28-.26-.43.09.15.18.29.26.43M221.47,398.2c.09-.14.18-.27.28-.42-.09.15-.18.28-.28.42M284.12,398.18c-.09-.13-.17-.26-.26-.4.09.14.17.27.26.4M220.97,398.93c.09-.12.18-.24.27-.37-.09.13-.18.25-.27.37M284.63,398.92c-.08-.12-.17-.23-.26-.36.09.12.17.24.26.36M220.47,399.58c.09-.11.17-.21.26-.33-.09.11-.17.22-.26.33M285.13,399.57c-.08-.1-.17-.2-.25-.31.08.11.17.21.25.31M219.98,400.15c.08-.09.17-.18.25-.28-.09.1-.17.19-.25.28M285.62,400.14c-.08-.09-.16-.18-.25-.28.08.1.17.19.25.28M219.75,400.39c-.08.08-.17.16-.25.23.08-.08.16-.15.25-.23M286.1,400.63c-.08-.08-.16-.15-.24-.23.08.08.16.16.24.23M219.03,401.02c.08-.06.16-.12.24-.19-.08.07-.16.13-.24.19M286.57,401.02c-.08-.06-.16-.12-.24-.19.08.07.16.13.24.19M218.58,401.32c.08-.04.16-.09.24-.14-.08.05-.16.09-.24.14M287.03,401.32c-.08-.04-.16-.08-.24-.14.08.05.16.09.24.14M287.47,401.53c-.08-.03-.15-.05-.23-.09.08.04.16.06.23.09M218.25,401.49s-.08.03-.12.04c.04-.01.08-.03.12-.04.04-.01.08-.03.12-.05-.04.02-.08.03-.12.05M287.91,401.64c-.08,0-.15-.02-.23-.03.08.02.15.02.23.03M217.69,401.64c.08,0,.15-.02.23-.03-.08.02-.15.02-.23.03M288.14,64.43c-18.34,0-26.31,17.34-29.71,24.75-1.86,4.04-3.74,8.69-5.63,13.56-1.89-4.87-3.77-9.51-5.63-13.56-3.4-7.41-11.36-24.75-29.71-24.75-1.91,0-3.82.21-5.69.64-3.94.89-17.05,5.17-20.59,22.57-.79,3.87-1.12,8.36-1.06,14.14.05,4.48.34,9.52.74,14.77-14.87-13.9-24.78-21.43-36.91-21.43-6.01,0-11.64,1.95-16.27,5.65-3.15,2.51-13.08,12.05-8.69,29.23.97,3.79,2.6,7.94,5.15,13.07,1.99,4.02,4.46,8.45,7.11,13.02-12.59-3.91-21.71-6.17-29.19-6.17-16.99,0-23.86,11.48-25.55,15-1.75,3.63-6.59,16.54,4.84,30.1,2.5,2.97,5.75,5.97,10.23,9.45,3.56,2.77,7.74,5.71,12.15,8.7-5.16.77-10.1,1.61-14.45,2.56-5.68,1.24-10.01,2.58-13.63,4.22-16.16,7.34-17.42,21.07-17.42,25.1s1.26,17.75,17.41,25.1c3.62,1.65,7.95,2.99,13.63,4.22,4.35.95,9.29,1.78,14.45,2.56-4.41,2.99-8.59,5.93-12.15,8.7-4.48,3.48-7.73,6.49-10.23,9.45-11.43,13.55-6.59,26.46-4.84,30.1,1.7,3.52,8.56,15,25.55,15,7.48,0,16.6-2.26,29.19-6.17-2.65,4.57-5.11,9-7.1,13.02-2.54,5.13-4.18,9.28-5.15,13.07-4.39,17.17,5.55,26.71,8.69,29.23,4.63,3.7,10.26,5.65,16.27,5.65,12.13,0,22.04-7.53,36.91-21.42-.4,5.25-.69,10.29-.74,14.77-.06,5.77.27,10.27,1.06,14.14,3.54,17.4,16.65,21.67,20.59,22.57,1.86.42,3.77.64,5.69.64,18.34,0,26.31-17.34,29.71-24.75,1.86-4.04,3.74-8.69,5.63-13.56,1.89,4.87,3.77,9.51,5.63,13.56,3.4,7.41,11.36,24.75,29.71,24.75,1.91,0,3.82-.21,5.69-.64,3.94-.89,17.05-5.17,20.59-22.57.79-3.87,1.12-8.36,1.06-14.14-.05-4.48-.34-9.52-.74-14.77,14.87,13.9,24.78,21.42,36.91,21.42,6.01,0,11.64-1.95,16.27-5.65,3.15-2.51,13.08-12.05,8.69-29.23-.97-3.79-2.6-7.94-5.15-13.07-1.99-4.02-4.46-8.45-7.11-13.02,12.59,3.91,21.71,6.17,29.19,6.17,16.99,0,23.86-11.48,25.55-15,1.75-3.63,6.59-16.54-4.84-30.1-2.5-2.97-5.75-5.97-10.23-9.45-3.56-2.77-7.74-5.71-12.15-8.7,5.16-.77,10.1-1.61,14.45-2.56,5.68-1.24,10.01-2.58,13.63-4.22,16.16-7.34,17.42-21.07,17.42-25.1s-1.26-17.75-17.41-25.1c-3.62-1.65-7.95-2.99-13.63-4.22-4.35-.95-9.29-1.78-14.45-2.56,4.41-2.99,8.59-5.93,12.15-8.7,4.48-3.48,7.73-6.49,10.23-9.45,11.43-13.55,6.59-26.46,4.84-30.1-1.7-3.52-8.56-15-25.55-15-7.49,0-16.61,2.26-29.2,6.17,2.65-4.57,5.11-9,7.11-13.02,2.54-5.13,4.18-9.28,5.15-13.07,4.39-17.17-5.55-26.71-8.69-29.23-4.63-3.7-10.26-5.65-16.27-5.65-12.12,0-22.04,7.53-36.91,21.42.4-5.25.69-10.29.74-14.77.06-5.77-.27-10.27-1.06-14.14-3.54-17.4-16.65-21.67-20.59-22.57-1.86-.42-3.77-.64-5.69-.64h0Z"/>
  </g>
  <path d="M413.37,245.04c0,9.45-74.25,10.44-76.26,19.28-2.08,9.13,64.35,42.19,60.37,50.42-4.04,8.37-71.32-23-77.07-15.81-5.77,7.23,39.74,65.87,32.52,71.64-7.19,5.74-54.26-51.63-62.63-47.59-8.24,3.97,7.33,76.57-1.8,78.64s-26.26-70.12-35.71-70.12-26.86,72.13-35.71,70.12c-9.13-2.08,6.44-74.67-1.8-78.64-8.37-4.04-55.44,53.33-62.63,47.59-7.23-5.77,38.29-64.41,32.52-71.64-5.74-7.19-73.03,24.18-77.07,15.81-3.97-8.24,62.45-41.29,60.37-50.42-2.01-8.84-76.26-9.83-76.26-19.28s74.25-10.44,76.26-19.28c2.08-9.13-64.35-42.19-60.37-50.42,4.04-8.37,71.32,23,77.07,15.81,5.77-7.23-39.74-65.87-32.52-71.64,7.19-5.74,54.26,51.63,62.63,47.59,8.24-3.97-7.33-76.57,1.8-78.64,8.84-2.01,26.26,70.12,35.71,70.12s26.86-72.13,35.71-70.12c9.13,2.08-6.44,74.67,1.8,78.64,8.37,4.04,55.44-53.33,62.63-47.59,7.23,5.77-38.29,64.41-32.52,71.64,5.74,7.19,73.03-24.18,77.07-15.81,3.97,8.24-62.45,41.29-60.37,50.42,2.01,8.84,76.26,9.83,76.26,19.28Z"/>
</svg>